#!OML:ASF C:\Vicon Data\Big\jianyuan-13\jianyuan\Session 1\Capture.male.ASF
:FULLY-SPECIFIED
:DEGREES
153
root -6.485206 17.407267 -13.611023 8.419731 11.121622 1.301196
lowerback -13.084248 2.238746 -2.585440 
upperback 2.223946 3.525224 -1.097103 
thorax 9.672885 1.582930 1.023176 
lowerneck 0.977402 -4.291193 2.486640 
upperneck 13.063744 -5.562090 -2.376779 
head 3.944678 -2.716501 -1.386577 
rclavicle 0.000000 0.000000 
rhumerus -36.879823 -14.790902 -83.256587 
rradius 39.987540 
rwrist 22.433617 
rhand -18.866932 -18.851930 
rfingers 0.000000 
rthumb 7.433615 -48.701338 
lclavicle 0.000000 0.000000 
lhumerus -40.558136 32.580473 68.686996 
lradius 26.911100 
lwrist -52.882286 
lhand -17.616893 -0.202308 
lfingers 0.000000 
lthumb 8.640017 29.600896 
rfemur -3.618394 -2.503881 20.014458 
rtibia 42.038888 
rfoot -14.352016 -3.399687 
rtoes -36.060219 
lfemur -30.146249 -5.163077 -19.872793 
ltibia 25.045333 
lfoot -4.281553 3.782012 
ltoes -28.400510 
154
root -6.412427 17.422423 -13.513265 8.470218 10.909220 1.351869
lowerback -13.072131 2.337361 -2.604880 
upperback 2.143427 3.664311 -1.174733 
thorax 9.577295 1.653627 0.977110 
lowerneck 0.979098 -4.398969 2.668201 
upperneck 13.324725 -5.711964 -2.367345 
head 4.029303 -2.779167 -1.425623 
rclavicle 0.000000 0.000000 
rhumerus -37.003411 -15.114349 -83.047246 
rradius 39.824349 
rwrist 22.388204 
rhand -18.958087 -18.883899 
rfingers 0.000000 
rthumb 7.345619 -48.736300 
lclavicle 0.000000 0.000000 
lhumerus -40.522310 32.156713 69.064996 
lradius 27.126098 
lwrist -52.222648 
lhand -17.446002 -0.236925 
lfingers 0.000000 
lthumb 8.804982 29.559359 
rfemur -5.151164 -3.728519 19.312463 
rtibia 44.880274 
rfoot -12.515920 -2.799010 
rtoes -37.011295 
lfemur -29.759163 -5.272286 -20.107850 
ltibia 25.067901 
lfoot -4.763436 3.777907 
ltoes -27.912373 
155
root -6.338345 17.436704 -13.418940 8.520187 10.789993 1.416804
lowerback -13.009977 2.338111 -2.621502 
upperback 2.015482 3.664034 -1.204707 
thorax 9.401816 1.658057 0.948015 
lowerneck 1.051004 -4.429381 2.771934 
upperneck 13.578658 -5.740602 -2.477969 
head 4.100060 -2.790580 -1.485753 
rclavicle 0.000000 0.000000 
rhumerus -37.176536 -15.455063 -82.714391 
rradius 39.551070 
rwrist 22.690008 
rhand -19.068237 -18.792778 
rfingers 0.000000 
rthumb 7.239276 -48.648873 
lclavicle 0.000000 0.000000 
lhumerus -40.591709 31.710191 69.432588 
lradius 27.265240 
lwrist -51.254375 
lhand -17.159778 -0.339444 
lfingers 0.000000 
lthumb 9.081157 29.445075 
rfemur -6.859449 -4.865565 18.630827 
rtibia 48.070165 
rfoot -10.734726 -2.270835 
rtoes -37.405971 
lfemur -29.349203 -5.331096 -20.389918 
ltibia 25.027688 
lfoot -5.152472 3.665002 
ltoes -27.264893 
156
root -6.261543 17.447976 -13.327658 8.473455 10.637014 1.553056
lowerback -12.865995 2.368162 -2.700711 
upperback 1.975310 3.713335 -1.239696 
thorax 9.270547 1.681862 0.956954 
lowerneck 1.048000 -4.409046 2.735639 
upperneck 13.743046 -5.721120 -2.394692 
head 4.164293 -2.777643 -1.456044 
rclavicle 0.000000 0.000000 
rhumerus -37.259121 -15.884953 -82.314134 
rradius 39.336135 
rwrist 23.123596 
rhand -18.929143 -18.748197 
rfingers 0.000000 
rthumb 7.373526 -48.599669 
lclavicle 0.000000 0.000000 
lhumerus -40.744206 31.688592 69.592074 
lradius 27.343134 
lwrist -51.817052 
lhand -17.541973 -0.400031 
lfingers 0.000000 
lthumb 8.712398 29.400164 
rfemur -8.560362 -5.853944 17.809397 
rtibia 51.401702 
rfoot -8.875002 -1.690168 
rtoes -36.960664 
lfemur -28.838679 -5.500479 -20.730811 
ltibia 24.997417 
lfoot -5.616212 3.658338 
ltoes -26.253607 
157
root -6.187834 17.452938 -13.247589 8.616402 10.444880 1.716548
lowerback -12.832940 2.356338 -2.817175 
upperback 1.862145 3.711530 -1.247292 
thorax 9.120919 1.679014 1.009076 
lowerneck 1.019539 -4.383169 2.599250 
upperneck 13.960679 -5.677185 -2.441325 
head 4.252570 -2.763037 -1.454099 
rclavicle 0.000000 0.000000 
rhumerus -37.369165 -15.861462 -82.026561 
rradius 39.282323 
rwrist 23.122293 
rhand -18.940457 -18.898689 
rfingers 0.000000 
rthumb 7.362626 -48.750614 
lclavicle 0.000000 0.000000 
lhumerus -40.770736 31.302881 70.111514 
lradius 27.603214 
lwrist -50.983202 
lhand -17.322181 -0.368013 
lfingers 0.000000 
lthumb 8.924457 29.423201 
rfemur -10.770244 -6.972073 17.060961 
rtibia 54.727789 
rfoot -6.713739 -1.498051 
rtoes -39.224416 
lfemur -28.589031 -5.520913 -21.121104 
ltibia 24.983051 
lfoot -5.969425 3.587610 
ltoes -25.656531 
158
root -6.114534 17.455522 -13.174819 8.675725 10.146957 1.931689
lowerback -12.620470 2.377899 -2.964063 
upperback 1.734260 3.752521 -1.273338 
thorax 8.850075 1.699155 1.057774 
lowerneck 0.973417 -4.408915 2.638143 
upperneck 14.196857 -5.693854 -2.613667 
head 4.340968 -2.775232 -1.527398 
rclavicle 0.000000 0.000000 
rhumerus -37.513607 -15.956787 -81.691848 
rradius 39.186142 
rwrist 23.006647 
rhand -19.170651 -18.775037 
rfingers 0.000000 
rthumb 7.140448 -48.634521 
lclavicle 0.000000 0.000000 
lhumerus -40.993114 31.276813 70.298038 
lradius 27.684299 
lwrist -51.164225 
lhand -17.513696 -0.400205 
lfingers 0.000000 
lthumb 8.739618 29.398842 
rfemur -12.945365 -7.858031 16.214410 
rtibia 58.079271 
rfoot -4.613115 -1.072337 
rtoes -39.759988 
lfemur -28.294583 -5.459038 -21.591548 
ltibia 25.011067 
lfoot -6.316911 3.508122 
ltoes -24.974477 
